<?xml version="1.0" encoding="UTF-8"?>
<svg id="_레이어_2" data-name="레이어 2" xmlns="http://www.w3.org/2000/svg" viewBox="0 0 131.75 97.72">
  <defs>
    <style>
      .cls-1 {
        fill: #fff;
      }

      .cls-2 {
        fill: none;
      }

      .cls-3 {
        fill: #0c2e86;
      }
    </style>
  </defs>
  <g id="_레이어_1-2" data-name="레이어 1">
    <g>
      <path class="cls-2" d="m74.4,15.2c.88.05,1.66-.21,2.26-.75.72-.65,1.16-1.72,1.22-2.99.12-2.35-1.11-3.99-3.08-4.09-.87-.05-1.65.22-2.24.76-.74.66-1.19,1.72-1.25,2.99-.07,1.27.26,2.38.91,3.1.54.6,1.29.94,2.18.98Zm-1.04-6.32c.39-.34.85-.5,1.38-.47.54.03.99.23,1.33.61.49.54.75,1.41.7,2.38-.05.98-.39,1.81-.91,2.29-.39.34-.86.5-1.41.47-1.6-.08-2.09-1.66-2.02-2.99.05-.97.39-1.8.93-2.29Z"/>
      <path class="cls-2" d="m36.01,80.05s-3.32,5.66-3.44,5.86c-.02-.23-.62-6.75-.62-6.75l-1.16-.25v.07s.89,7.89.89,7.89l1.25.27,4.17-6.85-1.09-.24Z"/>
      <path class="cls-2" d="m75.25,82.65c-1.96.12-3.19,1.77-3.05,4.12.14,2.37,1.52,3.83,3.52,3.71.89-.05,1.63-.39,2.17-.99.65-.74.96-1.84.89-3.12-.14-2.34-1.56-3.83-3.53-3.72Zm1.75,6.17c-.34.38-.79.59-1.34.62-.55.04-1.03-.12-1.41-.46-.53-.47-.87-1.3-.93-2.28-.06-.97.19-1.84.68-2.38.34-.39.78-.6,1.32-.62.53-.04,1,.11,1.39.45.54.49.89,1.32.95,2.29.05.98-.18,1.84-.66,2.38Z"/>
      <path class="cls-2" d="m83.71,85.21s-2.39.24-2.48.25c-.01-.09-.21-1.99-.21-2.08.09,0,2.6-.27,2.6-.27l-.11-1.03h-.04l-3.62.37.77,7.55,1.06-.11s-.34-3.3-.35-3.4c.09,0,2.49-.25,2.49-.25l-.11-1.03Z"/>
      <path class="cls-2" d="m89.98,15.55s-2.7-.36-2.79-.37c.01-.1.86-6.49.86-6.49l-1.06-.14v.05l-.99,7.47,3.85.51.13-1.03Z"/>
      <path class="cls-2" d="m56.68,82.83l-.05.99s2,.09,2.1.1c-.01.09-.29,6.53-.29,6.53l1.06.05s.28-6.44.29-6.54c.09.01,2.09.1,2.09.1l.05-1.04-5.25-.24v.05Z"/>
      <path class="cls-2" d="m38.12,80.51l-1.31,7.42,3.82.67.18-1.02s-2.67-.47-2.77-.49c.02-.09.4-2.24.41-2.33.09.01,2.52.44,2.52.44l.18-1.03s-2.43-.42-2.52-.44c.02-.09.35-1.97.37-2.06.09.02,2.76.49,2.76.49l.18-1.03-3.81-.67v.05Z"/>
      <path class="cls-2" d="m45.1,81.59l-1.68-.23v.05s-1.03,7.47-1.03,7.47l1.05.14s.44-3.2.45-3.29c.08.01.53.07.53.07.51.07.79.11.98.84l.68,2.74,1.2.17-.88-3.2c-.14-.45-.26-.65-.51-.81.83-.09,1.45-.68,1.57-1.53.02-.15.03-.3.03-.43,0-.45-.11-.81-.33-1.1-.45-.59-1.29-.78-2.06-.89Zm1.25,2.29c-.04.3-.17.54-.39.7-.28.21-.68.29-1.16.22,0,0-.68-.09-.77-.1.02-.09.29-2.07.3-2.16.09.01.87.12.87.12.74.1,1.16.48,1.16,1.05,0,.05-.01.11-.01.17Z"/>
      <polygon class="cls-2" points="54.43 82.65 53.88 90.17 54.94 90.25 55.5 82.68 54.44 82.61 54.43 82.65"/>
      <path class="cls-2" d="m51.17,83.24c.49.04.75.16,1.21.43l.06.03.26-1.07-.04-.02c-.42-.21-.94-.37-1.42-.41-1.34-.14-2.28.59-2.41,1.85-.12,1.29.7,1.83,1.43,2.31.63.41,1.18.77,1.1,1.5-.03.32-.16.58-.39.76-.3.25-.71.31-.99.28-.55-.05-1.16-.39-1.34-.49l-.05-.04-.22,1.09.03.02c.42.2.87.4,1.36.45,1.59.16,2.58-.58,2.73-2.02.14-1.42-.75-2.01-1.52-2.54-.58-.38-1.07-.71-1.01-1.3.02-.27.13-.48.3-.62.28-.24.7-.24.91-.21Z"/>
      <path class="cls-2" d="m92.38,80.81l-.11.02-1.27.19s-1.97,3.08-2.3,3.61c-.04-.23-.5-3.17-.5-3.17l-1.05.16,1.17,7.5,1.05-.17s-.51-3.29-.55-3.54c.19.18,3.43,3.08,3.43,3.08.1,0,1.43-.21,1.43-.21h.11s-3.97-3.38-4.04-3.43c.05-.07,2.63-4.04,2.63-4.04Z"/>
      <path class="cls-2" d="m65.9,86.36c-.09-.13-1.98-3.31-1.98-3.31h-1.24l.04.07s2.61,4.33,2.62,4.35v3.17h1.06v-3.18s2.63-4.33,2.63-4.33l.05-.07h-1.25s-1.85,3.17-1.93,3.3Z"/>
      <path class="cls-2" d="m19.76,20.45c.78.44,1.71.53,2.68.25.62-.17,1.1-.4,1.43-.68l.02-.02-.37-1.1-.06.06c-.27.32-.87.62-1.29.74-1.39.39-2.72-.49-3.17-2.1-.25-.85-.18-1.68.19-2.33.31-.56.82-.95,1.47-1.13.47-.13.95-.12,1.42.03l.08.02-.23-1.13h-.03c-.5-.1-1.01-.07-1.57.09-.96.27-1.7.84-2.15,1.65-.49.86-.59,1.96-.27,3.07.33,1.2.97,2.09,1.85,2.58Z"/>
      <path class="cls-2" d="m58.5,14.99s-.11-3.31-.12-3.4c.1-.01,3.04-.11,3.13-.11,0,.1.11,3.41.11,3.41l1.06-.04-.25-7.58h-.04s-1.02.04-1.02.04c0,0,.1,3.04.1,3.13-.09,0-3.03.1-3.12.1,0-.09-.1-3.13-.1-3.13l-1.07.04.25,7.58,1.07-.04Z"/>
      <path class="cls-2" d="m127.81,14.65C109.42,6.55,86.47,2.52,65.88,2.52S22.34,6.55,3.95,14.65c0,0-.79.42-1.08,1.09-.2.46-.35.81-.35,2.13v62.06c0,1.31.15,1.66.35,2.12.29.67,1.08,1.09,1.08,1.09,18.39,8.1,41.34,12.14,61.93,12.14s43.54-4.04,61.93-12.14c0,0,.79-.42,1.08-1.09.2-.46.35-.81.35-2.12V17.87c0-1.32-.15-1.67-.35-2.13-.29-.67-1.08-1.09-1.08-1.09Zm.12,65.23c0,1.36-.58,1.88-1.77,2.48-18.32,7.68-40.3,11.58-60.29,11.58s-41.97-3.9-60.28-11.58c-1.2-.6-1.77-1.12-1.77-2.48V17.85c0-1.35.57-1.88,1.77-2.47C23.9,7.69,45.88,3.79,65.87,3.79s41.97,3.9,60.29,11.59c1.19.59,1.77,1.12,1.77,2.47v62.03Z"/>
      <polygon class="cls-2" points="100.36 10.74 99.32 10.53 99.31 10.57 97.82 17.96 98.86 18.17 100.36 10.74"/>
      <path class="cls-2" d="m114.4,75.13l-.99.34-.34,8.12,1.06-.36s.04-1.94.05-2.01c.06-.02,3-1.01,3.06-1.03.04.05,1.25,1.57,1.25,1.57l1.1-.37-5.16-6.27h-.03Zm-.21,5.06c0-.13.08-3.5.08-3.75.16.2,2.25,2.83,2.33,2.93-.12.04-2.29.78-2.41.82Z"/>
      <path class="cls-2" d="m45.59,9.46c0,.1.74,6.5.74,6.5l1.05-.12s-.72-6.4-.73-6.5c.09-.01,2.08-.23,2.08-.23l-.12-1.04h-.04s-5.18.59-5.18.59l.12,1.04s1.99-.23,2.08-.24Z"/>
      <path class="cls-2" d="m104.16,82.14c.6-.32.95-.89.95-1.53,0-.16-.02-.31-.06-.47-.16-.64-.43-1.06-.85-1.31-.64-.39-1.49-.25-2.24-.06l-1.65.41,1.83,7.36,1.03-.26s-.78-3.13-.8-3.23c.08-.01.52-.12.52-.12.49-.13.77-.2,1.22.41l1.64,2.3,1.18-.29-2-2.65c-.3-.36-.49-.5-.77-.56Zm-1.29-.28s-.63.15-.75.18c-.02-.08-.5-2.02-.52-2.11.08-.02.85-.21.85-.21.8-.2,1.35.06,1.52.71.02.1.03.2.03.29,0,.54-.4.96-1.13,1.14Z"/>
      <path class="cls-2" d="m32.5,16.24c.07-.01,3.11-.6,3.18-.61.03.06,1.03,1.73,1.03,1.73l1.13-.22-4.26-6.91h-.03s-1.03.2-1.03.2l-1.43,8,1.1-.21s.3-1.92.31-1.98Zm.75-4.72c.12.21,1.84,3.1,1.91,3.22-.13.02-2.37.45-2.5.47.02-.12.55-3.45.59-3.69Z"/>
      <path class="cls-2" d="m109.12,83.64c-.02-.09-.63-2.19-.66-2.28.09-.02,2.46-.71,2.46-.71l-.3-1s-2.36.69-2.45.71c-.03-.08-.56-1.92-.58-2,.08-.03,2.69-.79,2.69-.79l-.29-1-.04.02-3.68,1.06,2.12,7.29,3.72-1.08-.29-1s-2.61.75-2.7.78Z"/>
      <path class="cls-2" d="m95.8,80c-1.93.39-2.92,2.2-2.46,4.5.47,2.33,2.04,3.59,4,3.2,1.96-.4,2.92-2.16,2.45-4.5-.46-2.3-2.06-3.58-3.99-3.2Zm2.58,5.87c-.29.42-.71.7-1.25.8-1.57.32-2.43-1.09-2.69-2.39-.19-.96-.07-1.85.34-2.46.28-.42.7-.69,1.22-.79.53-.11,1.01-.02,1.44.26.61.4,1.07,1.18,1.26,2.13.19.96.07,1.85-.32,2.45Z"/>
      <path class="cls-2" d="m110.51,14.81c.56-.32,1.2-.39,1.85-.21.47.13.87.39,1.2.76l.06.06.39-1.09-.03-.02c-.37-.33-.83-.57-1.39-.72-2.05-.57-3.91.57-4.52,2.78-.64,2.31.31,4.19,2.41,4.77.63.17,1.15.22,1.58.15h.03l.25-1.14-.08.03c-.4.13-1.07.08-1.49-.04-.6-.17-1.11-.56-1.42-1.11-.37-.66-.44-1.48-.21-2.33.24-.85.73-1.53,1.37-1.89Z"/>
      <polygon class="cls-1" points="27.91 85.98 29.77 78.62 28.74 78.36 28.72 78.41 26.88 85.72 27.91 85.98"/>
      <path class="cls-1" d="m20.63,83.98s1.59-5.5,1.68-5.8c.06.3,1.19,6.63,1.19,6.63l1.26.37,2.12-7.28-1.02-.3s-1.56,5.36-1.65,5.67c-.06-.31-1.15-6.48-1.15-6.48l-1.34-.39v.05s-2.11,7.23-2.11,7.23l1.02.3Z"/>
      <path class="cls-1" d="m13.58,81.08c.27.57.78.99,1.5,1.23,1.62.56,2.89-.23,3.58-2.23l1.44-4.2-1-.34-1.4,4.06c-.31.92-.7,1.47-1.18,1.71-.32.15-.69.16-1.11.02-.42-.15-.7-.37-.86-.7-.23-.48-.19-1.15.12-2.07l1.4-4.06-1.01-.35-.02.05-1.42,4.15c-.38,1.1-.39,2.02-.04,2.73Z"/>
      <path class="cls-3" d="m33.25,11.52c-.04.24-.57,3.57-.59,3.69.13-.02,2.37-.45,2.5-.47-.07-.12-1.79-3.01-1.91-3.22Z"/>
      <path class="cls-3" d="m114.19,80.19c.12-.04,2.29-.78,2.41-.82-.08-.1-2.17-2.73-2.33-2.93,0,.25-.08,3.62-.08,3.75Z"/>
      <path class="cls-3" d="m130.97,14.11c-.59-.9-1.43-1.42-1.9-1.66C110.5,4.45,87.39,0,65.88,0S21.26,4.45,2.69,12.45c-.47.24-1.31.76-1.9,1.66-.65.97-.77,2.64-.79,3.72v62.07c.02,1.07.14,2.74.79,3.72.53.81,1.28,1.32,1.76,1.58,18.61,8.05,41.77,12.52,63.33,12.52s44.71-4.47,63.33-12.52c.48-.26,1.23-.77,1.76-1.58.65-.98.77-2.65.78-3.72V17.83c-.01-1.08-.13-2.75-.78-3.72Zm-1.73,65.82c0,1.31-.15,1.66-.35,2.12-.29.67-1.08,1.09-1.08,1.09-18.39,8.1-41.34,12.14-61.93,12.14s-43.54-4.04-61.93-12.14c0,0-.79-.42-1.08-1.09-.2-.46-.35-.81-.35-2.12V17.87c0-1.32.15-1.67.35-2.13.29-.67,1.08-1.09,1.08-1.09C22.34,6.55,45.29,2.52,65.88,2.52s43.54,4.03,61.93,12.13c0,0,.79.42,1.08,1.09.2.46.35.81.35,2.13v62.06Z"/>
      <path class="cls-3" d="m102.45,79.72s-.77.19-.85.21c.02.09.5,2.03.52,2.11.12-.03.75-.18.75-.18.73-.18,1.13-.6,1.13-1.14,0-.09-.01-.19-.03-.29-.17-.65-.72-.91-1.52-.71Z"/>
      <path class="cls-3" d="m74.45,14.16c.55.03,1.02-.13,1.41-.47.52-.48.86-1.31.91-2.29.05-.97-.21-1.84-.7-2.38-.34-.38-.79-.58-1.33-.61-.53-.03-.99.13-1.38.47-.54.49-.88,1.32-.93,2.29-.07,1.33.42,2.91,2.02,2.99Z"/>
      <path class="cls-3" d="m45.2,82.66s-.78-.11-.87-.12c-.01.09-.28,2.07-.3,2.16.09.01.77.1.77.1.48.07.88-.01,1.16-.22.22-.16.35-.4.39-.7,0-.06.01-.12.01-.17,0-.57-.42-.95-1.16-1.05Z"/>
      <path class="cls-3" d="m97.44,81.29c-.43-.28-.91-.37-1.44-.26-.52.1-.94.37-1.22.79-.41.61-.53,1.5-.34,2.46.26,1.3,1.12,2.71,2.69,2.39.54-.1.96-.38,1.25-.8.39-.6.51-1.49.32-2.45-.19-.95-.65-1.73-1.26-2.13Z"/>
      <path class="cls-3" d="m75.32,83.7c-.54.02-.98.23-1.32.62-.49.54-.74,1.41-.68,2.38.06.98.4,1.81.93,2.28.38.34.86.5,1.41.46.55-.03,1-.24,1.34-.62.48-.54.71-1.4.66-2.38-.06-.97-.41-1.8-.95-2.29-.39-.34-.86-.49-1.39-.45Z"/>
      <path class="cls-3" d="m126.16,15.38c-18.32-7.69-40.3-11.59-60.29-11.59S23.9,7.69,5.59,15.38c-1.2.59-1.77,1.12-1.77,2.47v62.03c0,1.36.57,1.88,1.77,2.48,18.31,7.68,40.29,11.58,60.28,11.58s41.97-3.9,60.29-11.58c1.19-.6,1.77-1.12,1.77-2.48V17.85c0-1.35-.58-1.88-1.77-2.47Zm-26.85-4.81v-.04s1.05.21,1.05.21l-1.5,7.43-1.04-.21,1.49-7.39Zm-41.06-3.16s.1,3.04.1,3.13c.09,0,3.03-.1,3.12-.1,0-.09-.1-3.13-.1-3.13l1.02-.03h.04s.25,7.57.25,7.57l-1.06.04s-.11-3.31-.11-3.41c-.09,0-3.03.1-3.13.11.01.09.12,3.4.12,3.4l-1.07.04-.25-7.58,1.07-.04Zm-9.68.67h.04s.12,1.03.12,1.03c0,0-1.99.22-2.08.23,0,.1.73,6.5.73,6.5l-1.05.12s-.73-6.4-.74-6.5c-.09.01-2.08.24-2.08.24l-.12-1.04,5.18-.58Zm-16.05,2.35l1.03-.19h.03s4.26,6.9,4.26,6.9l-1.13.22s-1-1.67-1.03-1.73c-.07.01-3.11.6-3.18.61-.01.06-.31,1.98-.31,1.98l-1.1.21,1.43-8Zm-14.34,4.37c.45-.81,1.19-1.38,2.15-1.65.56-.16,1.07-.19,1.57-.1h.03s.23,1.14.23,1.14l-.08-.02c-.47-.15-.95-.16-1.42-.03-.65.18-1.16.57-1.47,1.13-.37.65-.44,1.48-.19,2.33.45,1.61,1.78,2.49,3.17,2.1.42-.12,1.02-.42,1.29-.74l.06-.06.37,1.1-.02.02c-.33.28-.81.51-1.43.68-.97.28-1.9.19-2.68-.25-.88-.49-1.52-1.38-1.85-2.58-.32-1.11-.22-2.21.27-3.07Zm-4.56,63.55l1.42-4.15.02-.05,1.01.35-1.4,4.06c-.31.92-.35,1.59-.12,2.07.16.33.44.55.86.7.42.14.79.13,1.11-.02.48-.24.87-.79,1.18-1.71l1.4-4.06,1,.34-1.44,4.2c-.69,2-1.96,2.79-3.58,2.23-.72-.24-1.23-.66-1.5-1.23-.35-.71-.34-1.63.04-2.73Zm8.09-1.9v-.05s1.35.39,1.35.39c0,0,1.09,6.17,1.15,6.48.09-.31,1.65-5.67,1.65-5.67l1.02.3-2.12,7.28-1.26-.37s-1.13-6.33-1.19-6.63c-.09.3-1.68,5.8-1.68,5.8l-1.02-.3,2.1-7.23Zm5.17,9.27l1.84-7.31.02-.05,1.03.26-1.86,7.36-1.03-.26Zm4.8,1.15l-.88-7.89v-.07s1.15.25,1.15.25c0,0,.6,6.52.62,6.75.12-.2,3.44-5.86,3.44-5.86l1.09.24-4.17,6.85-1.25-.27Zm10.08-4.71s-2.67-.47-2.76-.49c-.02.09-.35,1.97-.37,2.06.09.02,2.52.44,2.52.44l-.18,1.03s-2.43-.43-2.52-.44c-.01.09-.39,2.24-.41,2.33.1.02,2.77.49,2.77.49l-.18,1.02-3.82-.67,1.31-7.42v-.05s3.82.67,3.82.67l-.18,1.03Zm5.7,1.85c-.12.85-.74,1.44-1.57,1.53.25.16.37.36.51.81l.88,3.2-1.2-.17-.68-2.74c-.19-.73-.47-.77-.98-.84,0,0-.45-.06-.53-.07-.01.09-.45,3.29-.45,3.29l-1.05-.14,1.02-7.47v-.05s1.69.23,1.69.23c.77.11,1.61.3,2.06.89.22.29.33.65.33,1.1,0,.13-.01.28-.03.43Zm3.51,1.36c.77.53,1.66,1.12,1.52,2.54-.15,1.44-1.14,2.18-2.73,2.02-.49-.05-.94-.25-1.36-.45l-.03-.02.22-1.09.05.04c.18.1.79.44,1.34.49.28.03.69-.03.99-.28.23-.18.36-.44.39-.76.08-.73-.47-1.09-1.1-1.5-.73-.48-1.55-1.02-1.43-2.31.13-1.26,1.07-1.99,2.41-1.85.48.04,1,.2,1.42.41l.04.02-.26,1.07-.06-.03c-.46-.27-.72-.39-1.21-.43-.21-.03-.63-.03-.91.21-.17.14-.28.35-.3.62-.06.59.43.92,1.01,1.3Zm3.97,4.88l-1.06-.08.55-7.52v-.04s1.07.07,1.07.07l-.56,7.57Zm6.94-6.19s-2-.09-2.09-.1c-.01.1-.29,6.54-.29,6.54l-1.06-.05s.28-6.44.29-6.53c-.1-.01-2.1-.1-2.1-.1l.05-.99v-.05l5.25.24-.05,1.04Zm7.15-.93l-2.62,4.33v3.18h-1.07v-3.17s-2.62-4.35-2.62-4.35l-.04-.07h1.24s1.89,3.18,1.98,3.31c.08-.13,1.93-3.3,1.93-3.3h1.25l-.05.07Zm3.53-75c.59-.54,1.37-.81,2.24-.76,1.97.1,3.2,1.74,3.08,4.09-.06,1.27-.5,2.34-1.22,2.99-.6.54-1.38.8-2.26.75-.89-.04-1.64-.38-2.18-.98-.65-.72-.98-1.83-.91-3.1.06-1.27.51-2.33,1.25-2.99Zm5.33,81.36c-.54.6-1.28.94-2.17.99-2,.12-3.38-1.34-3.52-3.71-.14-2.35,1.09-4,3.05-4.12,1.97-.11,3.39,1.38,3.53,3.72.07,1.28-.24,2.38-.89,3.12Zm3.79.4l-1.06.11-.77-7.55,3.62-.37h.04l.11,1.03s-2.51.26-2.6.27c0,.09.2,1.99.21,2.08.09-.01,2.48-.25,2.48-.25l.11,1.03s-2.4.25-2.49.25c.01.1.35,3.4.35,3.4Zm5.31-81.29v-.05l1.06.14s-.85,6.39-.86,6.49c.09,0,2.79.37,2.79.37l-.13,1.03-3.85-.51.99-7.47Zm6.69,79.68s-1.33.21-1.43.21c0,0-3.24-2.9-3.43-3.08.04.25.55,3.54.55,3.54l-1.05.17-1.17-7.5,1.05-.16s.46,2.94.5,3.17c.33-.53,2.27-3.59,2.3-3.61l1.27-.19.11-.02s-2.58,3.97-2.63,4.04c.07.05,4.04,3.42,4.04,3.42h-.11Zm3.66-.58c-1.96.39-3.53-.87-4-3.2-.46-2.3.53-4.11,2.46-4.5,1.93-.38,3.53.9,3.99,3.2.47,2.34-.49,4.1-2.45,4.5Zm8.41-2.06l-1.64-2.3c-.45-.61-.73-.54-1.22-.41,0,0-.44.11-.52.12.02.1.8,3.23.8,3.23l-1.03.26-1.83-7.36,1.65-.41c.75-.19,1.6-.33,2.24.06.42.25.69.67.85,1.31.04.16.06.31.06.47,0,.64-.35,1.21-.95,1.53.28.06.47.2.77.56l2,2.65-1.18.29Zm2.64-.7l-2.12-7.29,3.68-1.06.04-.02.29,1s-2.61.76-2.69.79c.02.08.55,1.92.58,2,.09-.02,2.45-.71,2.45-.71l.3,1s-2.37.69-2.46.71c.03.09.64,2.19.66,2.28.09-.03,2.7-.78,2.7-.78l.29,1-3.72,1.08Zm.96-65.91c.31.55.82.94,1.42,1.11.42.12,1.09.17,1.49.04l.08-.03-.25,1.14h-.03c-.43.07-.95.02-1.58-.15-2.1-.58-3.05-2.46-2.41-4.77.61-2.21,2.47-3.35,4.52-2.78.56.15,1.02.39,1.39.72l.03.02-.39,1.09-.06-.06c-.33-.37-.73-.63-1.2-.76-.65-.18-1.29-.11-1.85.21-.64.36-1.13,1.04-1.37,1.89-.23.85-.16,1.67.21,2.33Zm9.14,62.73s-1.21-1.52-1.25-1.57c-.06.02-3,1.01-3.06,1.03-.01.07-.05,2.01-.05,2.01l-1.06.36.34-8.12.99-.34h.03s5.16,6.26,5.16,6.26l-1.1.37Z"/>
    </g>
    <path class="cls-1" d="m128.89,15.74c-.29-.67-1.08-1.09-1.08-1.09C109.42,6.55,86.47,2.52,65.88,2.52S22.34,6.55,3.95,14.65c0,0-.79.42-1.08,1.09-.2.46-.35.81-.35,2.13v62.06c0,1.31.15,1.66.35,2.12.29.67,1.08,1.09,1.08,1.09,18.39,8.1,41.34,12.14,61.93,12.14s43.54-4.04,61.93-12.14c0,0,.79-.42,1.08-1.09.2-.46.35-.81.35-2.12V17.87c0-1.32-.15-1.67-.35-2.13Zm-.96,64.14c0,1.36-.58,1.88-1.77,2.48-18.32,7.68-40.3,11.58-60.29,11.58s-41.97-3.9-60.28-11.58c-1.2-.6-1.77-1.12-1.77-2.48V17.85c0-1.35.57-1.88,1.77-2.47C23.9,7.69,45.88,3.79,65.87,3.79s41.97,3.9,60.29,11.59c1.19.59,1.77,1.12,1.77,2.47v62.03Z"/>
    <path class="cls-1" d="m37.1,80.29l-4.17,6.85-1.25-.27-.88-7.89v-.07s1.15.25,1.15.25c0,0,.6,6.52.62,6.75.12-.2,3.44-5.86,3.44-5.86l1.09.24Z"/>
    <path class="cls-1" d="m39,81.67c-.02.09-.35,1.97-.37,2.06.09.02,2.52.44,2.52.44l-.18,1.03s-2.43-.43-2.52-.44c-.01.09-.39,2.24-.41,2.33.1.02,2.77.49,2.77.49l-.18,1.02-3.82-.67,1.31-7.42v-.05s3.82.67,3.82.67l-.18,1.03s-2.67-.47-2.76-.49Z"/>
    <path class="cls-1" d="m47.46,84.01c.02-.15.03-.3.03-.43,0-.45-.11-.81-.33-1.1-.45-.59-1.29-.78-2.06-.89l-1.68-.23v.05s-1.03,7.47-1.03,7.47l1.05.14s.44-3.2.45-3.29c.08.01.53.07.53.07.51.07.79.11.98.84l.68,2.74,1.2.17-.88-3.2c-.14-.45-.26-.65-.51-.81.83-.09,1.45-.68,1.57-1.53Zm-1.11-.13c-.04.3-.17.54-.39.7-.28.21-.68.29-1.16.22,0,0-.68-.09-.77-.1.02-.09.29-2.07.3-2.16.09.01.87.12.87.12.74.1,1.16.48,1.16,1.05,0,.05-.01.11-.01.17Z"/>
    <path class="cls-1" d="m52.49,87.91c-.15,1.44-1.14,2.18-2.73,2.02-.49-.05-.94-.25-1.36-.45l-.03-.02.22-1.09.05.04c.18.1.79.44,1.34.49.28.03.69-.03.99-.28.23-.18.36-.44.39-.76.08-.73-.47-1.09-1.1-1.5-.73-.48-1.55-1.02-1.43-2.31.13-1.26,1.07-1.99,2.41-1.85.48.04,1,.2,1.42.41l.04.02-.26,1.07-.06-.03c-.46-.27-.72-.39-1.21-.43-.21-.03-.63-.03-.91.21-.17.14-.28.35-.3.62-.06.59.43.92,1.01,1.3.77.53,1.66,1.12,1.52,2.54Z"/>
    <polygon class="cls-1" points="55.5 82.68 54.94 90.25 53.88 90.17 54.43 82.65 54.44 82.61 55.5 82.68"/>
    <path class="cls-1" d="m61.93,83.02l-.05,1.04s-2-.09-2.09-.1c-.01.1-.29,6.54-.29,6.54l-1.06-.05s.28-6.44.29-6.53c-.1-.01-2.1-.1-2.1-.1l.05-.99v-.05l5.25.24Z"/>
    <path class="cls-1" d="m69.08,83.06l-.05.07-2.62,4.33v3.18h-1.07v-3.17s-2.62-4.35-2.62-4.35l-.04-.07h1.24s1.89,3.18,1.98,3.31c.08-.13,1.93-3.3,1.93-3.3h1.25Z"/>
    <path class="cls-1" d="m75.25,82.65c-1.96.12-3.19,1.77-3.05,4.12.14,2.37,1.52,3.83,3.52,3.71.89-.05,1.63-.39,2.17-.99.65-.74.96-1.84.89-3.12-.14-2.34-1.56-3.83-3.53-3.72Zm1.75,6.17c-.34.38-.79.59-1.34.62-.55.04-1.03-.12-1.41-.46-.53-.47-.87-1.3-.93-2.28-.06-.97.19-1.84.68-2.38.34-.39.78-.6,1.32-.62.53-.04,1,.11,1.39.45.54.49.89,1.32.95,2.29.05.98-.18,1.84-.66,2.38Z"/>
    <path class="cls-1" d="m81.33,86.49c.01.1.35,3.4.35,3.4l-1.06.11-.77-7.55,3.62-.37h.04l.11,1.03s-2.51.26-2.6.27c0,.09.2,1.99.21,2.08.09-.01,2.48-.25,2.48-.25l.11,1.03s-2.4.25-2.49.25Z"/>
    <path class="cls-1" d="m93.79,88.27h-.11s-1.33.22-1.43.22c0,0-3.24-2.9-3.43-3.08.04.25.55,3.54.55,3.54l-1.05.17-1.17-7.5,1.05-.16s.46,2.94.5,3.17c.33-.53,2.27-3.59,2.3-3.61l1.27-.19.11-.02s-2.58,3.97-2.63,4.04c.07.05,4.04,3.42,4.04,3.42Z"/>
    <path class="cls-1" d="m99.79,83.2c-.46-2.3-2.06-3.58-3.99-3.2-1.93.39-2.92,2.2-2.46,4.5.47,2.33,2.04,3.59,4,3.2,1.96-.4,2.92-2.16,2.45-4.5Zm-1.41,2.67c-.29.42-.71.7-1.25.8-1.57.32-2.43-1.09-2.69-2.39-.19-.96-.07-1.85.34-2.46.28-.42.7-.69,1.22-.79.53-.11,1.01-.02,1.44.26.61.4,1.07,1.18,1.26,2.13.19.96.07,1.85-.32,2.45Z"/>
    <path class="cls-1" d="m112.11,83.86l-3.72,1.08-2.12-7.29,3.68-1.06.04-.02.29,1s-2.61.76-2.69.79c.02.08.55,1.92.58,2,.09-.02,2.45-.71,2.45-.71l.3,1s-2.37.69-2.46.71c.03.09.64,2.19.66,2.28.09-.03,2.7-.78,2.7-.78l.29,1Z"/>
    <path class="cls-1" d="m104.93,82.7c-.3-.36-.49-.5-.77-.56.6-.32.95-.89.95-1.53,0-.16-.02-.31-.06-.47-.16-.64-.43-1.06-.85-1.31-.64-.39-1.49-.25-2.24-.06l-1.65.41,1.83,7.36,1.03-.26s-.78-3.13-.8-3.23c.08-.01.52-.12.52-.12.49-.13.77-.2,1.22.41l1.64,2.3,1.18-.29-2-2.65Zm-2.06-.84s-.63.15-.75.18c-.02-.08-.5-2.02-.52-2.11.08-.02.85-.21.85-.21.8-.2,1.35.06,1.52.71.02.1.03.2.03.29,0,.54-.4.96-1.13,1.14Z"/>
    <path class="cls-1" d="m114.43,75.12h-.03s-.99.35-.99.35l-.34,8.12,1.06-.36s.04-1.94.05-2.01c.06-.02,3-1.01,3.06-1.03.04.05,1.25,1.57,1.25,1.57l1.1-.37-5.16-6.27Zm-.24,5.07c0-.13.08-3.5.08-3.75.16.2,2.25,2.83,2.33,2.93-.12.04-2.29.78-2.41.82Z"/>
    <path class="cls-1" d="m23.89,20l-.02.02c-.33.28-.81.51-1.43.68-.97.28-1.9.19-2.68-.25-.88-.49-1.52-1.38-1.85-2.58-.32-1.11-.22-2.21.27-3.07.45-.81,1.19-1.38,2.15-1.65.56-.16,1.07-.19,1.57-.1h.03s.23,1.14.23,1.14l-.08-.02c-.47-.15-.95-.16-1.42-.03-.65.18-1.16.57-1.47,1.13-.37.65-.44,1.48-.19,2.33.45,1.61,1.78,2.49,3.17,2.1.42-.12,1.02-.42,1.29-.74l.06-.06.37,1.1Z"/>
    <path class="cls-1" d="m33.58,10.23h-.03s-1.03.2-1.03.2l-1.43,8,1.1-.21s.3-1.92.31-1.98c.07-.01,3.11-.6,3.18-.61.03.06,1.03,1.73,1.03,1.73l1.13-.22-4.26-6.91Zm-.92,4.98c.02-.12.55-3.45.59-3.69.12.21,1.84,3.1,1.91,3.22-.13.02-2.37.45-2.5.47Z"/>
    <path class="cls-1" d="m46.65,9.34c0,.1.73,6.5.73,6.5l-1.05.12s-.73-6.4-.74-6.5c-.09.01-2.08.24-2.08.24l-.12-1.04,5.18-.58h.04s.12,1.03.12,1.03c0,0-1.99.22-2.08.23Z"/>
    <path class="cls-1" d="m62.68,14.85l-1.06.04s-.11-3.31-.11-3.41c-.09,0-3.03.1-3.13.11.01.09.12,3.4.12,3.4l-1.07.04-.25-7.58,1.07-.04s.1,3.04.1,3.13c.09,0,3.03-.1,3.12-.1,0-.09-.1-3.13-.1-3.13l1.02-.03h.04s.25,7.57.25,7.57Z"/>
    <path class="cls-1" d="m114.01,14.33l-.39,1.09-.06-.06c-.33-.37-.73-.63-1.2-.76-.65-.18-1.29-.11-1.85.21-.64.36-1.13,1.04-1.37,1.89-.23.85-.16,1.67.21,2.33.31.55.82.94,1.42,1.11.42.12,1.09.17,1.49.04l.08-.03-.25,1.14h-.03c-.43.07-.95.02-1.58-.15-2.1-.58-3.05-2.46-2.41-4.77.61-2.21,2.47-3.35,4.52-2.78.56.15,1.02.39,1.39.72l.03.02Z"/>
    <polygon class="cls-1" points="100.36 10.74 98.86 18.17 97.82 17.96 99.31 10.57 99.32 10.53 100.36 10.74"/>
    <path class="cls-1" d="m89.98,15.55l-.13,1.03-3.85-.51.99-7.47v-.05l1.06.14s-.85,6.39-.86,6.49c.09,0,2.79.37,2.79.37Z"/>
    <path class="cls-1" d="m74.8,7.37c-.87-.05-1.65.22-2.24.76-.74.66-1.19,1.72-1.25,2.99-.07,1.27.26,2.38.91,3.1.54.6,1.29.94,2.18.98.88.05,1.66-.21,2.26-.75.72-.65,1.16-1.72,1.22-2.99.12-2.35-1.11-3.99-3.08-4.09Zm1.06,6.32c-.39.34-.86.5-1.41.47-1.6-.08-2.09-1.66-2.02-2.99.05-.97.39-1.8.93-2.29.39-.34.85-.5,1.38-.47.54.03.99.23,1.33.61.49.54.75,1.41.7,2.38-.05.98-.39,1.81-.91,2.29Z"/>
    <path class="cls-1" d="m15.85,25.59c-.07,14.81-.14,29.63-.2,44.44,11.52,3.86,28.93,8.24,50.44,8.34,21.58.1,39.08-4.16,50.64-7.93-.03-15.08-.07-30.17-.1-45.25-11.93-3.65-29.46-7.56-50.85-7.42-20.97.14-38.15,4.13-49.93,7.83Z"/>
    <polygon class="cls-3" points="28.87 30.57 31.92 33.01 50.12 33.01 50.12 68.3 79.21 68.3 79.21 65.66 53.48 65.66 53.48 64.33 79.11 64.33 79.11 61.69 53.58 61.69 53.58 60.37 79.21 60.37 79.21 57.93 53.48 57.93 53.48 30.57 28.87 30.57"/>
    <polyline class="cls-3" points="34.36 34.44 48.6 34.44 48.6 42.67"/>
    <polygon class="cls-3" points="79.26 30.57 79.26 33.17 91.62 33.17 91.62 34.23 79.26 34.23 79.26 44.3 88.82 38.45 82.97 38.45 82.97 37.44 90.7 37.44 101.43 30.47 79.26 30.57"/>
  </g>
</svg>